HIERARCHY
ROOT Hips
{
	OFFSET 0.000000 89.005402 0.000000
	CHANNELS 6 Xposition Yposition Zposition Xrotation Yrotation Zrotation
	JOINT Spine
	{
		OFFSET 0.116900 10.681000 0.373400
		CHANNELS 3 Xrotation Yrotation Zrotation
		JOINT Spine1
		{
			OFFSET 0.000000 13.840401 0.053500
			CHANNELS 3 Xrotation Yrotation Zrotation
			JOINT Spine2
			{
				OFFSET 0.000000 14.712700 -0.366200
				CHANNELS 3 Xrotation Yrotation Zrotation
				JOINT Neck
				{
					OFFSET 0.000000 35.415497 -3.314200
					CHANNELS 3 Xrotation Yrotation Zrotation
					JOINT Head
					{
						OFFSET 0.000000 16.899200 1.218300
						CHANNELS 3 Xrotation Yrotation Zrotation
						JOINT HeadTop_End
						{
							OFFSET 0.000000 22.206207 2.192500
							CHANNELS 3 Xrotation Yrotation Zrotation
							End Site
							{
								OFFSET 0.000000 22.314178 0.000000
							}
						}
					}
				}
				JOINT LeftShoulder
				{
					OFFSET 12.896400 26.716293 -4.548400
					CHANNELS 3 Xrotation Yrotation Zrotation
					JOINT LeftArm
					{
						OFFSET 19.027000 -4.857010 -1.718400
						CHANNELS 3 Xrotation Yrotation Zrotation
						JOINT LeftForeArm
						{
							OFFSET 24.179897 0.000000 0.000000
							CHANNELS 3 Xrotation Yrotation Zrotation
							JOINT LeftHand
							{
								OFFSET 27.156403 0.000000 0.000000
								CHANNELS 3 Xrotation Yrotation Zrotation
								JOINT LeftHandIndex1
								{
									OFFSET 16.441200 0.000000 0.000000
									CHANNELS 3 Xrotation Yrotation Zrotation
									JOINT LeftHandIndex2
									{
										OFFSET 4.821899 0.000000 0.000000
										CHANNELS 3 Xrotation Yrotation Zrotation
										JOINT LeftHandIndex3
										{
											OFFSET 6.386497 0.000000 0.000000
											CHANNELS 3 Xrotation Yrotation Zrotation
											JOINT LeftHandIndex4
											{
												OFFSET 5.188988 0.000000 0.000000
												CHANNELS 3 Xrotation Yrotation Zrotation
												End Site
												{
													OFFSET -0.178703 5.185913 0.000177
												}
											}
										}
									}
								}
								JOINT LeftHandThumb1
								{
									OFFSET 6.534897 -5.032593 5.900300
									CHANNELS 3 Xrotation Yrotation Zrotation
									JOINT LeftHandThumb2
									{
										OFFSET 3.818176 -2.204422 2.204423
										CHANNELS 3 Xrotation Yrotation Zrotation
										JOINT LeftHandThumb3
										{
											OFFSET 3.252098 -1.877594 1.877601
											CHANNELS 3 Xrotation Yrotation Zrotation
											JOINT LeftHandThumb4
											{
												OFFSET 5.251778 -3.032120 3.032117
												CHANNELS 3 Xrotation Yrotation Zrotation
												End Site
												{
													OFFSET 0.000023 6.780014 0.000000
												}
											}
										}
									}
								}
							}
						}
					}
				}
				JOINT RightShoulder
				{
					OFFSET -12.896300 26.716293 -4.548400
					CHANNELS 3 Xrotation Yrotation Zrotation
					JOINT RightArm
					{
						OFFSET -19.027000 -4.857010 -1.718400
						CHANNELS 3 Xrotation Yrotation Zrotation
						JOINT RightForeArm
						{
							OFFSET -24.179897 0.000000 0.000000
							CHANNELS 3 Xrotation Yrotation Zrotation
							JOINT RightHand
							{
								OFFSET -27.156403 0.000000 0.000000
								CHANNELS 3 Xrotation Yrotation Zrotation
								JOINT RightHandThumb1
								{
									OFFSET -6.591202 -4.852203 5.988100
									CHANNELS 3 Xrotation Yrotation Zrotation
									JOINT RightHandThumb2
									{
										OFFSET -3.818176 -2.204422 2.204423
										CHANNELS 3 Xrotation Yrotation Zrotation
										JOINT RightHandThumb3
										{
											OFFSET -3.252098 -1.877594 1.877601
											CHANNELS 3 Xrotation Yrotation Zrotation
											JOINT RightHandThumb4
											{
												OFFSET -5.251778 -3.032120 3.032117
												CHANNELS 3 Xrotation Yrotation Zrotation
												End Site
												{
													OFFSET -0.000023 6.780014 0.000000
												}
											}
										}
									}
								}
								JOINT RightHandIndex1
								{
									OFFSET -16.029404 0.000000 0.000000
									CHANNELS 3 Xrotation Yrotation Zrotation
									JOINT RightHandIndex2
									{
										OFFSET -5.213303 0.000000 0.000000
										CHANNELS 3 Xrotation Yrotation Zrotation
										JOINT RightHandIndex3
										{
											OFFSET -6.386528 0.000000 0.000000
											CHANNELS 3 Xrotation Yrotation Zrotation
											JOINT RightHandIndex4
											{
												OFFSET -5.189026 0.000000 0.000000
												CHANNELS 3 Xrotation Yrotation Zrotation
												End Site
												{
													OFFSET 0.236702 5.183624 0.001972
												}
											}
										}
									}
								}
							}
						}
					}
				}
			}
		}
	}
	JOINT LeftUpLeg
	{
		OFFSET 14.073000 -7.904099 -1.463000
		CHANNELS 3 Xrotation Yrotation Zrotation
		JOINT LeftLeg
		{
			OFFSET -0.109806 -34.073280 4.093200
			CHANNELS 3 Xrotation Yrotation Zrotation
			JOINT LeftFoot
			{
				OFFSET 0.109806 -29.899420 -6.319000
				CHANNELS 3 Xrotation Yrotation Zrotation
				JOINT LeftToeBase
				{
					OFFSET 1.551100 -14.988700 20.535801
					CHANNELS 3 Xrotation Yrotation Zrotation
					JOINT LeftToe_End
					{
						OFFSET 0.221200 0.570800 13.248301
						CHANNELS 3 Xrotation Yrotation Zrotation
						End Site
						{
							OFFSET 0.000000 13.262435 0.000000
						}
					}
				}
			}
		}
	}
	JOINT RightUpLeg
	{
		OFFSET -13.839300 -7.904099 -1.463000
		CHANNELS 3 Xrotation Yrotation Zrotation
		JOINT RightLeg
		{
			OFFSET 0.109694 -34.073219 4.093300
			CHANNELS 3 Xrotation Yrotation Zrotation
			JOINT RightFoot
			{
				OFFSET -0.109694 -29.899384 -6.319200
				CHANNELS 3 Xrotation Yrotation Zrotation
				JOINT RightToeBase
				{
					OFFSET -1.551100 -14.988700 20.535801
					CHANNELS 3 Xrotation Yrotation Zrotation
					JOINT RightToe_End
					{
						OFFSET -0.221200 0.570900 13.248299
						CHANNELS 3 Xrotation Yrotation Zrotation
						End Site
						{
							OFFSET 0.000000 13.262440 0.000000
						}
					}
				}
			}
		}
	}
}
MOTION
Frames: 5
Frame Time: 0.033333
0.684008 83.506302 1.004445 -2.839357 17.095699 3.234630 1.607740 3.801840 2.376857 0.075758 0.698672 0.642653 0.072296 0.703543 0.639162 4.616280 -4.185661 0.012799 25.549000 -20.658162 9.226348 -0.000000 0.000000 0.000000 0.542220 5.306772 -9.070059 8.968369 -3.872104 -72.718804 0.000502 -98.732078 0.000511 -34.489976 5.451804 -7.141116 -2.335165 -3.660284 -19.365451 0.770344 2.905759 -29.690822 0.268373 1.754471 -17.391951 -0.000000 -0.000001 0.000001 0.842402 3.310724 27.582285 5.975226 12.647535 1.348340 -7.335830 -0.421724 13.147353 0.000001 0.000001 0.000001 2.084705 -4.251570 31.670262 -4.101524 2.193629 37.022952 0.000151 77.335821 -0.000159 -73.890264 12.913640 33.757066 -11.906629 18.700515 -22.121113 6.258261 -15.736047 -5.845941 -4.081194 -17.694247 -17.235882 -0.000002 -0.000001 0.000002 -4.962031 2.582376 38.177670 0.995273 -2.879434 38.129169 0.018101 -0.410620 5.047075 -0.000000 0.000000 0.000000 -12.646262 9.042335 6.594033 27.490878 -1.137221 3.855584 -11.843593 1.376312 -9.873699 -0.000043 0.000000 -0.000003 0.000000 -0.000000 -0.000000 -12.581882 -10.067693 -4.436701 34.879628 -9.519656 2.842381 -20.127408 -16.448422 -0.092750 -0.000003 -0.000000 -0.000000 -0.000000 -0.000002 0.000000 
0.215066 83.547150 1.128702 -2.807393 17.081733 3.059986 1.514803 3.805891 2.258708 0.031095 0.695621 0.600379 0.027985 0.700259 0.596564 4.654644 -4.323718 0.047414 25.762422 -21.308153 9.890555 0.000001 0.000000 0.000000 0.550248 5.379909 -9.179498 9.148804 -3.488456 -72.575514 0.000100 -98.818863 0.000121 -34.612448 5.521457 -7.375414 -2.335169 -3.660287 -19.365453 0.770371 2.905760 -29.690832 0.268348 1.754468 -17.391934 -0.000000 0.000000 -0.000002 0.842385 3.310741 27.582276 5.975222 12.647535 1.348335 -7.335826 -0.421715 13.147363 -0.000001 -0.000002 -0.000001 2.084362 -4.230182 31.725037 -3.938010 2.058252 37.247986 -0.000081 77.538302 0.000110 -73.637963 12.961979 33.758500 -11.906627 18.700513 -22.121125 6.258250 -15.736075 -5.845946 -4.081197 -17.694250 -17.235892 -0.000001 -0.000003 -0.000001 -4.962029 2.582370 38.177680 0.995288 -2.879423 38.129183 0.018091 -0.410601 5.047071 0.000000 -0.000002 0.000001 -12.637446 9.050761 7.114451 27.136070 -1.236384 4.083507 -11.547663 1.426458 -10.431458 -0.000007 -0.000005 -0.000003 -0.000000 0.000000 -0.000000 -12.302466 -9.902277 -3.687872 34.434976 -9.546256 2.915615 -20.187172 -16.728388 -0.667175 -0.000047 -0.000005 -0.000001 -0.000000 -0.000000 -0.000000 
-0.260098 83.534668 1.273040 -2.830704 17.302515 2.846850 1.443458 3.782369 2.166022 -0.018611 0.687664 0.562696 -0.021326 0.692224 0.558455 4.634177 -4.450982 0.109260 25.962020 -21.850487 10.576600 -0.000001 0.000000 0.000000 0.557727 5.435306 -9.278870 9.318197 -3.390407 -72.363785 0.000501 -98.854571 0.000493 -34.691139 5.471679 -7.559256 -2.335179 -3.660275 -19.365466 0.770353 2.905772 -29.690832 0.268382 1.754467 -17.391943 0.000001 -0.000000 0.000006 0.842394 3.310730 27.582276 5.975212 12.647538 1.348332 -7.335822 -0.421709 13.147350 0.000000 0.000004 0.000001 2.090127 -4.270424 31.695496 -3.756180 1.767083 37.503554 0.000023 77.780951 -0.000014 -73.420879 13.010231 33.742354 -11.906618 18.700529 -22.121120 6.258255 -15.736073 -5.845934 -4.081197 -17.694237 -17.235890 -0.000001 0.000001 -0.000001 -4.962023 2.582378 38.177680 0.995264 -2.879445 38.129166 0.018096 -0.410616 5.047068 0.000001 0.000002 0.000002 -12.768450 8.881509 7.629053 27.055375 -1.393347 4.457671 -11.356422 1.482103 -11.060942 -0.000083 0.000002 -0.000005 -0.000000 -0.000000 -0.000000 -11.969525 -9.610670 -2.747916 34.094347 -9.603536 2.868106 -20.346208 -17.376869 -1.195607 -0.000127 -0.000000 0.000004 0.000000 -0.000000 -0.000000 
-0.728539 83.465652 1.414964 -2.845072 17.643249 2.643441 1.337805 3.795969 2.054153 -0.064910 0.687503 0.530167 -0.067362 0.691942 0.525579 4.629080 -4.573122 0.158213 26.149164 -22.402261 11.383268 -0.000000 0.000000 0.000000 0.564560 5.471887 -9.368215 9.464413 -3.524222 -72.158879 0.000106 -98.818412 0.000096 -34.651315 5.267224 -7.748255 -2.335181 -3.660289 -19.365453 0.770351 2.905752 -29.690832 0.268357 1.754481 -17.391938 -0.000001 0.000000 -0.000002 0.842394 3.310751 27.582281 5.975209 12.647541 1.348340 -7.335816 -0.421719 13.147352 0.000001 -0.000002 0.000000 2.101793 -4.360333 31.613623 -3.548768 1.473326 37.661906 0.000101 78.003622 -0.000103 -73.326623 13.076476 33.709142 -11.906625 18.700518 -22.121116 6.258245 -15.736078 -5.845944 -4.081197 -17.694252 -17.235888 -0.000000 -0.000002 -0.000000 -4.962031 2.582361 38.177677 0.995283 -2.879431 38.129172 0.018093 -0.410622 5.047086 -0.000000 0.000001 -0.000000 -13.018516 8.496936 8.053379 27.182983 -1.429008 4.940736 -11.247971 1.546567 -11.777019 0.000000 0.000002 -0.000001 -0.000000 0.000000 -0.000000 -11.776785 -9.058760 -1.631726 33.946863 -9.691190 2.524446 -20.547287 -18.424534 -1.564486 -0.000050 0.000000 -0.000002 -0.000000 -0.000000 -0.000000 
-1.197703 83.411690 1.544487 -2.854499 17.904769 2.543037 1.246777 3.906849 1.914966 -0.090469 0.706820 0.516896 -0.092944 0.711231 0.512075 4.615537 -4.669562 0.156013 26.248584 -22.908282 12.098678 0.000000 0.000000 -0.000000 0.571976 5.496074 -9.464166 9.581383 -3.759843 -72.042848 0.000508 -98.658374 0.000508 -34.471125 4.883994 -7.997683 -2.335175 -3.660283 -19.365453 0.770352 2.905780 -29.690829 0.268380 1.754470 -17.391938 0.000000 0.000001 -0.000001 0.842396 3.310746 27.582283 5.975216 12.647529 1.348337 -7.335822 -0.421708 13.147353 0.000001 -0.000001 0.000003 2.106391 -4.453996 31.424549 -3.432505 1.277370 37.823887 0.000142 78.063632 -0.000133 -73.229272 13.138888 33.765986 -11.906623 18.700515 -22.121123 6.258261 -15.736071 -5.845939 -4.081203 -17.694240 -17.235890 -0.000002 -0.000000 0.000001 -4.962039 2.582364 38.177674 0.995280 -2.879456 38.129169 0.018078 -0.410604 5.047066 -0.000001 -0.000000 -0.000000 -13.971776 7.560778 7.634168 29.083092 -0.473143 5.818743 -12.093296 1.686162 -10.304781 0.081768 0.000104 -0.093081 0.000000 -0.000001 -0.000000 -11.671629 -8.509929 -0.652345 33.836320 -9.795709 2.129608 -20.711063 -19.334247 -1.874233 -0.000002 0.000007 0.000001 0.000000 -0.000002 -0.000000 
